<?xml version="1.0" encoding="UTF-8"?>
<svg width="20px" height="20px" viewBox="0 0 20 20" version="1.1" xmlns="http://www.w3.org/2000/svg" xmlns:xlink="http://www.w3.org/1999/xlink">
    <!-- Generator: Sketch 53.2 (72643) - https://sketchapp.com -->
    <title>Group 3</title>
    <desc>Created with Sketch.</desc>
    <g id="Page-1" stroke="none" stroke-width="1" fill="none" fill-rule="evenodd" opacity="0.8">
        <g id="高级搜索" transform="translate(-3836.000000, -834.000000)" fill="#888888">
            <g id="分组-6" transform="translate(3501.000000, 716.000000)">
                <g id="Group-5" transform="translate(112.000000, 113.000000)">
                    <g id="日期" transform="translate(223.000000, 5.000000)">
                        <g id="日期-copy">
                            <g id="Group-3" transform="translate(0.833333, 0.833333)">
                                <path d="M12.5001667,-0.00025 L12.5001667,1.66725 L5.8335,1.66725 L5.8335,-0.00025 L4.166,-0.00025 L4.166,1.66725 L1.66683333,1.66725 C0.74635875,1.66725 0.000166666667,2.41344208 0.000166666667,3.33391667 L0.000166666667,16.6664167 C0.000166666667,17.5868912 0.74635875,18.3330833 1.66683333,18.3330833 L16.666,18.3330833 C17.5864746,18.3330833 18.3326667,17.5868912 18.3326667,16.6664167 L18.3326667,3.33391667 C18.3326667,2.41344208 17.5864746,1.66725 16.666,1.66725 L14.1668333,1.66725 L14.1668333,-0.00025 L12.5001667,-0.00025 Z M14.1668333,4.99975 L14.1668333,3.33391667 L16.6668333,3.33391667 L16.6668333,6.66641667 L1.66683333,6.66641667 L1.66683333,3.33391667 L4.166,3.33391667 L4.166,4.99975 L5.8335,4.99975 L5.8335,3.33391667 L12.5001667,3.33391667 L12.5001667,4.99975 L14.1668333,4.99975 Z M1.66683333,16.66725 L16.6668333,16.66725 L16.6668333,8.33308333 L1.66683333,8.33308333 L1.66683333,16.66725 Z" id="Fill-2"></path>
                                <polygon id="7" points="6.66666667 9.16666667 11.6666667 9.16666667 11.6666667 10.5952381 9.16666667 15.8333333 7.26666667 15.8333333 9.86666667 10.5952381 6.66666667 10.5952381"></polygon>
                            </g>
                        </g>
                    </g>
                </g>
            </g>
        </g>
    </g>
</svg>